<svg width="256" height="256" viewBox="0 0 256 256" fill="none" xmlns="http://www.w3.org/2000/svg">
  <rect width="256" height="256" rx="64" fill="#181A20"/>
  <path d="M128 48C87.82 48 56 79.82 56 120C56 160.18 87.82 192 128 192C168.18 192 200 160.18 200 120C200 79.82 168.18 48 128 48ZM128 176C97.07 176 72 150.93 72 120C72 89.07 97.07 64 128 64C158.93 64 184 89.07 184 120C184 150.93 158.93 176 128 176Z" fill="#fff"/>
  <path d="M128 104C120.27 104 114 110.27 114 118C114 125.73 120.27 132 128 132C135.73 132 142 125.73 142 118C142 110.27 135.73 104 128 104ZM128 124C124.13 124 121 120.87 121 117C121 113.13 124.13 110 128 110C131.87 110 135 113.13 135 117C135 120.87 131.87 124 128 124Z" fill="#7CF8C2"/>
  <path d="M128 32C70.98 32 24 78.98 24 136C24 193.02 70.98 240 128 240C185.02 240 232 193.02 232 136C232 78.98 185.02 32 128 32ZM128 224C80.47 224 40 183.53 40 136C40 88.47 80.47 48 128 48C175.53 48 216 88.47 216 136C216 183.53 175.53 224 128 224Z" fill="#fff"/>
</svg>
